<?xml version="1.0" encoding="utf-8"?>
<!-- Generator: Adobe Illustrator 27.9.0, SVG Export Plug-In . SVG Version: 6.00 Build 0)  -->
<svg version="1.1" id="Layer_1" xmlns="http://www.w3.org/2000/svg" xmlns:xlink="http://www.w3.org/1999/xlink" x="0px" y="0px"
	 viewBox="0 0 400 158.66" style="enable-background:new 0 0 400 158.66;" xml:space="preserve">
<style type="text/css">
	.st0{fill:#FF5760;}
</style>
<g>
	<g>
		<g>
			<path d="M148.82,111.39c0-3.91,2.56-7.3,6.62-8.43c-2.86-0.6-4.97-3.09-4.97-5.87c0-3.16,2.18-5.5,5.27-6.62
				c-2.71-2.26-4.37-5.65-4.37-9.86c0-8.13,6.47-13.25,14.08-13.25c3.39,0,6.47,0.98,9.03,2.63c0.9-3.31,3.99-5.19,7.38-5.19
				c0.45,0,1.05,0.08,1.43,0.15v3.16c-0.38-0.08-0.98-0.08-1.43-0.08c-2.71,0-4.67,1.51-5.19,4.06c1.88,2.18,3.01,5.04,3.01,8.51
				c0,8.13-6.4,13.02-14.23,13.02c-2.86,0-5.49-0.6-7.68-1.81c-2.03,0.83-3.91,2.26-3.91,4.52c0,3.46,3.76,3.91,6.77,3.91h7.75
				c5.8,0,9.41,0.98,11.97,3.39c1.81,1.73,2.86,3.76,2.86,6.93c0,8.43-8.81,11.52-17.76,11.52
				C156.19,122.08,148.82,118.84,148.82,111.39z M179.45,110.71c0-5.42-4.89-6.92-10.76-6.92H158.6c-3.39,0.83-6.25,2.86-6.25,7.23
				c0,5.87,6.55,7.68,13.17,7.68C172.68,118.69,179.45,116.88,179.45,110.71z M175.91,80.6c0-6.25-4.59-9.94-10.46-9.94
				c-5.65,0-10.39,3.69-10.39,9.94c0,6.17,4.52,9.71,10.39,9.71C171.32,90.31,175.91,86.77,175.91,80.6z"/>
			<path d="M193.36,102.66c-4.14-3.99-5.72-8.96-5.72-15.43c0-6.4,1.58-11.44,5.72-15.43c2.71-2.56,6.47-4.44,11.29-4.44
				c4.82,0,8.58,1.88,11.29,4.44c4.14,3.99,5.72,9.03,5.72,15.43c0,6.47-1.58,11.44-5.72,15.43c-2.71,2.56-6.47,4.44-11.29,4.44
				C199.83,107.1,196.07,105.21,193.36,102.66z M213.31,100.1c3.54-3.46,4.52-7.9,4.52-12.87c0-4.89-0.98-9.41-4.52-12.87
				c-2.03-2.03-4.89-3.31-8.66-3.31c-3.76,0-6.62,1.28-8.66,3.31c-3.54,3.46-4.52,7.98-4.52,12.87c0,4.97,0.98,9.41,4.52,12.87
				c2.03,2.03,4.89,3.31,8.66,3.31C208.42,103.41,211.28,102.13,213.31,100.1z"/>
			<path d="M231.02,98.52V51.55h3.76v46.82c0,2.56,0.75,4.52,3.91,4.52c1.51,0,2.18-0.08,3.24-0.23v3.39
				c-0.83,0.23-1.81,0.45-3.39,0.45C233.73,106.49,231.02,104.01,231.02,98.52z"/>
			<path d="M253.37,52.67v5.57h-5.12v-5.57H253.37z M252.76,68.41v37.64h-3.84V68.41H252.76z"/>
			<path d="M267.7,102.66c-4.14-3.99-5.72-8.96-5.72-15.43c0-6.4,1.58-11.44,5.72-15.43c2.71-2.56,6.47-4.44,11.29-4.44
				s8.58,1.88,11.29,4.44c4.14,3.99,5.72,9.03,5.72,15.43c0,6.47-1.58,11.44-5.72,15.43c-2.71,2.56-6.47,4.44-11.29,4.44
				S270.41,105.21,267.7,102.66z M287.65,100.1c3.54-3.46,4.52-7.9,4.52-12.87c0-4.89-0.98-9.41-4.52-12.87
				c-2.03-2.03-4.89-3.31-8.66-3.31s-6.62,1.28-8.66,3.31c-3.54,3.46-4.52,7.98-4.52,12.87c0,4.97,0.98,9.41,4.52,12.87
				c2.03,2.03,4.89,3.31,8.66,3.31S285.62,102.13,287.65,100.1z"/>
			<path d="M308.7,96.26V71.87h-8.88v-3.46h8.88V58.02l3.76-0.9v11.29h11.82v3.46h-11.82v23.86c0,4.14,1.28,7.3,6.77,7.3
				c2.03,0,3.61-0.23,5.57-0.68v3.31c-1.88,0.6-3.76,0.9-5.87,0.9C311.56,106.57,308.7,102.28,308.7,96.26z"/>
			<path d="M335.94,51.55v23.79c2.11-4.82,7.68-7.98,12.95-7.98c8.58,0,13.47,5.42,13.47,13.85v24.84h-3.76V81.43
				c0-6.62-3.16-10.54-9.94-10.54c-9.18,0-12.72,8.2-12.72,16.33v18.82h-3.76v-54.5H335.94z"/>
		</g>
		<polygon class="st0" points="93.23,51.53 93.23,37.64 79.33,37.64 79.33,51.53 37.64,51.53 37.64,65.43 65.43,65.43 65.43,121.02 
			79.33,121.02 79.33,93.23 93.23,93.23 93.23,121.02 107.12,121.02 107.12,65.43 134.92,65.43 134.92,51.53 		"/>
	</g>
</g>
</svg>
